<svg width="343" height="198" viewBox="0 0 343 198" fill="none" xmlns="http://www.w3.org/2000/svg">
<path d="M3.69902 194.992C3.69902 194.992 1.47961 117.046 62.2108 60.5905C122.942 4.13546 210.642 -10.0253 266.867 13.4715C323.093 36.9684 351.205 102.384 335.467 145.806C319.73 189.228 269.087 202.825 240.436 191.86C211.786 180.894 202.168 147.936 220.731 130.642C237.881 114.665 256.174 123.813 258.999 132.71C261.823 141.608 258.999 146.307 255.636 148.375C252.273 150.442 244.135 152.322 241.849 144.991" stroke="#CBC4B8" stroke-miterlimit="10" stroke-linecap="round" stroke-linejoin="round"/>
<path d="M339.974 2.50635H3.69897V195.494H339.974V2.50635Z" stroke="#CBC4B8" stroke-miterlimit="10" stroke-linecap="round" stroke-linejoin="round"/>
<path d="M211.18 2.50635V195.494" stroke="#CBC4B8" stroke-miterlimit="10" stroke-linecap="round" stroke-linejoin="round"/>
<path d="M339.974 121.745H211.18" stroke="#CBC4B8" stroke-miterlimit="10" stroke-linecap="round" stroke-linejoin="round"/>
<path d="M260.276 121.745V195.431" stroke="#CBC4B8" stroke-miterlimit="10" stroke-linecap="round" stroke-linejoin="round"/>
<path d="M211.18 149.878L260.276 150.442" stroke="#CBC4B8" stroke-miterlimit="10" stroke-linecap="round" stroke-linejoin="round"/>
<path d="M241.58 121.745L241.445 150.004" stroke="#CBC4B8" stroke-miterlimit="10" stroke-linecap="round" stroke-linejoin="round"/>
<path d="M260.142 139.54H241.58" stroke="#CBC4B8" stroke-miterlimit="10" stroke-linecap="round" stroke-linejoin="round"/>
<path d="M248.843 150.004V139.54" stroke="#CBC4B8" stroke-miterlimit="10" stroke-linecap="round" stroke-linejoin="round"/>
<path d="M248.843 144.741H241.58" stroke="#CBC4B8" stroke-miterlimit="10" stroke-linecap="round" stroke-linejoin="round"/>
</svg>
