<svg width="699" height="404" viewBox="0 0 699 404" fill="none" xmlns="http://www.w3.org/2000/svg">
<path d="M7.53819 397.863C7.53819 397.863 3.01525 238.82 126.779 123.629C250.543 8.43804 429.268 -20.4556 543.849 27.4874C658.431 75.4305 715.721 208.904 683.649 297.503C651.578 386.101 548.372 413.844 489.985 391.471C431.598 369.098 411.999 301.849 449.827 266.563C484.777 233.962 522.057 252.628 527.813 270.782C533.57 288.937 527.813 298.525 520.961 302.744C514.108 306.963 497.523 310.799 492.863 295.841" stroke="#CBC4B8" stroke-miterlimit="10" stroke-linecap="round" stroke-linejoin="round"/>
<path d="M692.832 5.11389H7.53821V398.886H692.832V5.11389Z" stroke="#CBC4B8" stroke-miterlimit="10" stroke-linecap="round" stroke-linejoin="round"/>
<path d="M430.365 5.11389V398.886" stroke="#CBC4B8" stroke-miterlimit="10" stroke-linecap="round" stroke-linejoin="round"/>
<path d="M692.832 248.409H430.365" stroke="#CBC4B8" stroke-miterlimit="10" stroke-linecap="round" stroke-linejoin="round"/>
<path d="M530.418 248.409V398.758" stroke="#CBC4B8" stroke-miterlimit="10" stroke-linecap="round" stroke-linejoin="round"/>
<path d="M430.365 305.813L530.418 306.963" stroke="#CBC4B8" stroke-miterlimit="10" stroke-linecap="round" stroke-linejoin="round"/>
<path d="M492.316 248.409L492.041 306.068" stroke="#CBC4B8" stroke-miterlimit="10" stroke-linecap="round" stroke-linejoin="round"/>
<path d="M530.144 284.718H492.315" stroke="#CBC4B8" stroke-miterlimit="10" stroke-linecap="round" stroke-linejoin="round"/>
<path d="M507.118 306.068V284.718" stroke="#CBC4B8" stroke-miterlimit="10" stroke-linecap="round" stroke-linejoin="round"/>
<path d="M507.118 295.329H492.315" stroke="#CBC4B8" stroke-miterlimit="10" stroke-linecap="round" stroke-linejoin="round"/>
</svg>
