<svg width="545" height="312" viewBox="0 0 545 312" fill="none" xmlns="http://www.w3.org/2000/svg">
<path d="M5.87747 307.261C5.87747 307.261 2.351 184.435 98.8481 95.4758C195.345 6.51634 334.694 -15.7976 424.032 21.2277C513.369 58.2531 558.037 161.332 533.032 229.754C508.026 298.177 427.558 319.602 382.034 302.324C336.511 285.046 321.23 233.111 350.724 205.861C377.974 180.683 407.04 195.099 411.529 209.119C416.017 223.139 411.529 230.544 406.185 233.802C400.842 237.061 387.912 240.023 384.279 228.471" stroke="#E7E0CC" stroke-miterlimit="10" stroke-linecap="round" stroke-linejoin="round"/>
<path d="M540.191 3.94946H5.87741V308.051H540.191V3.94946Z" stroke="#E7E0CC" stroke-miterlimit="10" stroke-linecap="round" stroke-linejoin="round"/>
<path d="M335.549 3.94946V308.051" stroke="#E7E0CC" stroke-miterlimit="10" stroke-linecap="round" stroke-linejoin="round"/>
<path d="M540.191 191.841H335.549" stroke="#E7E0CC" stroke-miterlimit="10" stroke-linecap="round" stroke-linejoin="round"/>
<path d="M413.559 191.841V307.952" stroke="#E7E0CC" stroke-miterlimit="10" stroke-linecap="round" stroke-linejoin="round"/>
<path d="M335.549 236.172L413.559 237.061" stroke="#E7E0CC" stroke-miterlimit="10" stroke-linecap="round" stroke-linejoin="round"/>
<path d="M383.851 191.841L383.637 236.37" stroke="#E7E0CC" stroke-miterlimit="10" stroke-linecap="round" stroke-linejoin="round"/>
<path d="M413.345 219.881H383.851" stroke="#E7E0CC" stroke-miterlimit="10" stroke-linecap="round" stroke-linejoin="round"/>
<path d="M395.392 236.37V219.881" stroke="#E7E0CC" stroke-miterlimit="10" stroke-linecap="round" stroke-linejoin="round"/>
<path d="M395.392 228.076H383.851" stroke="#E7E0CC" stroke-miterlimit="10" stroke-linecap="round" stroke-linejoin="round"/>
</svg>
