<svg width="752" height="432" viewBox="0 0 752 432" fill="none" xmlns="http://www.w3.org/2000/svg">
<path d="M743.89 425.438C743.89 425.438 748.756 255.372 615.608 132.197C482.459 9.02277 290.183 -21.8734 166.914 29.3924C43.6452 80.6582 -17.9893 223.382 16.5142 318.122C51.0178 412.861 162.048 442.527 224.863 418.603C287.677 394.679 308.762 322.77 268.066 285.038C230.466 250.177 190.359 270.137 184.166 289.549C177.973 308.962 184.166 319.215 191.539 323.727C198.911 328.238 216.753 332.339 221.766 316.344" stroke="#E7E0CC" stroke-miterlimit="10" stroke-linecap="round" stroke-linejoin="round"/>
<path d="M6.63507 5.46835H743.89V426.532H6.63507V5.46835Z" stroke="#E7E0CC" stroke-miterlimit="10" stroke-linecap="round" stroke-linejoin="round"/>
<path d="M289.004 5.46835V426.532" stroke="#E7E0CC" stroke-miterlimit="10" stroke-linecap="round" stroke-linejoin="round"/>
<path d="M6.63545 265.625H289.004" stroke="#E7E0CC" stroke-miterlimit="10" stroke-linecap="round" stroke-linejoin="round"/>
<path d="M181.365 265.625V426.395" stroke="#E7E0CC" stroke-miterlimit="10" stroke-linecap="round" stroke-linejoin="round"/>
<path d="M289.004 327.008L181.365 328.238" stroke="#E7E0CC" stroke-miterlimit="10" stroke-linecap="round" stroke-linejoin="round"/>
<path d="M222.357 265.625L222.651 327.281" stroke="#E7E0CC" stroke-miterlimit="10" stroke-linecap="round" stroke-linejoin="round"/>
<path d="M181.66 304.451H222.356" stroke="#E7E0CC" stroke-miterlimit="10" stroke-linecap="round" stroke-linejoin="round"/>
<path d="M206.431 327.281V304.451" stroke="#E7E0CC" stroke-miterlimit="10" stroke-linecap="round" stroke-linejoin="round"/>
<path d="M206.431 315.797H222.356" stroke="#E7E0CC" stroke-miterlimit="10" stroke-linecap="round" stroke-linejoin="round"/>
</svg>
