<svg width="725" height="420" viewBox="0 0 725 420" fill="none" xmlns="http://www.w3.org/2000/svg">
<g opacity="0.2">
<path d="M7.81867 413.62C7.81867 413.62 3.12749 248.279 131.495 128.525C259.863 8.77216 445.236 -21.2658 564.079 28.576C682.922 78.4177 742.343 217.177 709.079 309.285C675.814 401.393 568.77 430.234 508.211 406.975C447.652 383.715 427.324 313.804 466.559 277.12C502.809 243.228 541.476 262.633 547.446 281.506C553.417 300.38 547.446 310.348 540.339 314.734C533.231 319.12 516.03 323.108 511.196 307.557" stroke="#E7E0CC" stroke-miterlimit="10" stroke-linecap="round" stroke-linejoin="round"/>
<path d="M718.603 5.31641H7.81858V414.684H718.603V5.31641Z" stroke="#E7E0CC" stroke-miterlimit="10" stroke-linecap="round" stroke-linejoin="round"/>
<path d="M446.372 5.31641V414.684" stroke="#E7E0CC" stroke-miterlimit="10" stroke-linecap="round" stroke-linejoin="round"/>
<path d="M718.603 258.247H446.372" stroke="#E7E0CC" stroke-miterlimit="10" stroke-linecap="round" stroke-linejoin="round"/>
<path d="M550.147 258.247V414.551" stroke="#E7E0CC" stroke-miterlimit="10" stroke-linecap="round" stroke-linejoin="round"/>
<path d="M446.372 317.924L550.147 319.12" stroke="#E7E0CC" stroke-miterlimit="10" stroke-linecap="round" stroke-linejoin="round"/>
<path d="M510.627 258.247L510.343 318.19" stroke="#E7E0CC" stroke-miterlimit="10" stroke-linecap="round" stroke-linejoin="round"/>
<path d="M549.863 295.994H510.628" stroke="#E7E0CC" stroke-miterlimit="10" stroke-linecap="round" stroke-linejoin="round"/>
<path d="M525.98 318.19V295.994" stroke="#E7E0CC" stroke-miterlimit="10" stroke-linecap="round" stroke-linejoin="round"/>
<path d="M525.98 307.025H510.628" stroke="#E7E0CC" stroke-miterlimit="10" stroke-linecap="round" stroke-linejoin="round"/>
</g>
</svg>
