<svg width="860" height="495" viewBox="0 0 860 495" fill="none" xmlns="http://www.w3.org/2000/svg">
<path d="M850.725 487.481C850.725 487.481 856.29 292.614 704.02 151.476C551.749 10.3386 331.859 -25.0633 190.886 33.6788C49.9134 92.4209 -20.5729 255.959 18.8859 364.514C58.3448 473.07 185.321 507.062 257.157 479.649C328.992 452.236 353.106 369.84 306.564 326.606C263.564 286.661 217.698 309.532 210.615 331.775C203.533 354.019 210.615 365.768 219.047 370.937C227.478 376.106 247.882 380.805 253.615 362.478" stroke="#E7E0CC" stroke-miterlimit="10" stroke-linecap="round" stroke-linejoin="round"/>
<path d="M7.58795 6.26587H850.726V488.734H7.58795V6.26587Z" stroke="#E7E0CC" stroke-miterlimit="10" stroke-linecap="round" stroke-linejoin="round"/>
<path d="M330.51 6.26587V488.734" stroke="#E7E0CC" stroke-miterlimit="10" stroke-linecap="round" stroke-linejoin="round"/>
<path d="M7.58838 304.362H330.51" stroke="#E7E0CC" stroke-miterlimit="10" stroke-linecap="round" stroke-linejoin="round"/>
<path d="M207.412 304.362V488.578" stroke="#E7E0CC" stroke-miterlimit="10" stroke-linecap="round" stroke-linejoin="round"/>
<path d="M330.51 374.696L207.412 376.106" stroke="#E7E0CC" stroke-miterlimit="10" stroke-linecap="round" stroke-linejoin="round"/>
<path d="M254.29 304.362L254.627 375.01" stroke="#E7E0CC" stroke-miterlimit="10" stroke-linecap="round" stroke-linejoin="round"/>
<path d="M207.749 348.85H254.29" stroke="#E7E0CC" stroke-miterlimit="10" stroke-linecap="round" stroke-linejoin="round"/>
<path d="M236.078 375.01V348.85" stroke="#E7E0CC" stroke-miterlimit="10" stroke-linecap="round" stroke-linejoin="round"/>
<path d="M236.078 361.851H254.29" stroke="#E7E0CC" stroke-miterlimit="10" stroke-linecap="round" stroke-linejoin="round"/>
</svg>
