<svg width="352" height="218" viewBox="0 0 352 218" fill="none" xmlns="http://www.w3.org/2000/svg">
<path d="M348.204 214.689C348.204 214.689 350.482 128.868 288.157 66.7107C225.832 4.55314 135.831 -11.038 78.1302 14.8323C20.4298 40.7025 -8.42044 112.725 7.73015 160.534C23.8807 208.342 75.8525 223.312 105.255 211.239C134.657 199.166 144.527 162.879 125.478 143.839C107.878 126.247 89.1043 136.319 86.2055 146.115C83.3066 155.911 86.2055 161.085 89.6564 163.362C93.1074 165.639 101.459 167.708 103.805 159.637" stroke="#E7E0CC" stroke-miterlimit="10" stroke-linecap="round" stroke-linejoin="round"/>
<path d="M3.10565 2.75952H348.204V215.241H3.10565V2.75952Z" stroke="#E7E0CC" stroke-miterlimit="10" stroke-linecap="round" stroke-linejoin="round"/>
<path d="M135.278 2.75952V215.241" stroke="#E7E0CC" stroke-miterlimit="10" stroke-linecap="round" stroke-linejoin="round"/>
<path d="M3.10582 134.042H135.278" stroke="#E7E0CC" stroke-miterlimit="10" stroke-linecap="round" stroke-linejoin="round"/>
<path d="M84.8942 134.042V215.172" stroke="#E7E0CC" stroke-miterlimit="10" stroke-linecap="round" stroke-linejoin="round"/>
<path d="M135.278 165.018L84.8941 165.639" stroke="#E7E0CC" stroke-miterlimit="10" stroke-linecap="round" stroke-linejoin="round"/>
<path d="M104.082 134.042L104.219 165.156" stroke="#E7E0CC" stroke-miterlimit="10" stroke-linecap="round" stroke-linejoin="round"/>
<path d="M85.0318 153.635H104.081" stroke="#E7E0CC" stroke-miterlimit="10" stroke-linecap="round" stroke-linejoin="round"/>
<path d="M96.627 165.156V153.635" stroke="#E7E0CC" stroke-miterlimit="10" stroke-linecap="round" stroke-linejoin="round"/>
<path d="M96.6272 159.361H104.081" stroke="#E7E0CC" stroke-miterlimit="10" stroke-linecap="round" stroke-linejoin="round"/>
</svg>
