<svg width="548" height="300" viewBox="0 0 548 300" fill="none" xmlns="http://www.w3.org/2000/svg">
<path d="M5.90988 295.443C5.90988 295.443 2.364 177.342 99.3922 91.8038C196.42 6.26584 336.536 -15.1898 426.365 20.4114C516.194 56.0127 561.109 155.127 535.965 220.918C510.822 286.709 429.911 307.31 384.137 290.696C338.363 274.082 322.998 224.146 352.654 197.943C380.054 173.734 409.281 187.595 413.794 201.076C418.307 214.557 413.794 221.677 408.421 224.81C403.049 227.943 390.047 230.791 386.394 219.684" stroke="#E7E0CC" stroke-miterlimit="10" stroke-linecap="round" stroke-linejoin="round"/>
<path d="M543.165 3.79749L5.90979 3.79749L5.90979 296.203L543.165 296.203V3.79749Z" stroke="#E7E0CC" stroke-miterlimit="10" stroke-linecap="round" stroke-linejoin="round"/>
<path d="M337.396 3.79749L337.396 296.203" stroke="#E7E0CC" stroke-miterlimit="10" stroke-linecap="round" stroke-linejoin="round"/>
<path d="M543.165 184.462L337.396 184.462" stroke="#E7E0CC" stroke-miterlimit="10" stroke-linecap="round" stroke-linejoin="round"/>
<path d="M415.835 184.462V296.108" stroke="#E7E0CC" stroke-miterlimit="10" stroke-linecap="round" stroke-linejoin="round"/>
<path d="M337.396 227.089L415.835 227.943" stroke="#E7E0CC" stroke-miterlimit="10" stroke-linecap="round" stroke-linejoin="round"/>
<path d="M385.964 184.462L385.749 227.279" stroke="#E7E0CC" stroke-miterlimit="10" stroke-linecap="round" stroke-linejoin="round"/>
<path d="M415.62 211.424H385.964" stroke="#E7E0CC" stroke-miterlimit="10" stroke-linecap="round" stroke-linejoin="round"/>
<path d="M397.569 227.278V211.424" stroke="#E7E0CC" stroke-miterlimit="10" stroke-linecap="round" stroke-linejoin="round"/>
<path d="M397.569 219.304H385.964" stroke="#E7E0CC" stroke-miterlimit="10" stroke-linecap="round" stroke-linejoin="round"/>
</svg>
