<svg width="1072" height="660" viewBox="0 0 1072 660" fill="none" xmlns="http://www.w3.org/2000/svg">
<path d="M11.5608 649.975C11.5608 649.975 4.62436 390.152 194.431 201.968C384.239 13.7849 658.334 -33.4176 834.058 44.9052C1009.78 123.228 1097.64 341.279 1048.46 486.019C999.272 630.76 840.995 676.082 751.451 639.532C661.908 602.981 631.85 493.12 689.864 435.475C743.464 382.215 800.637 412.709 809.465 442.367C818.293 472.025 809.465 487.69 798.955 494.582C788.446 501.475 763.012 507.741 755.865 483.304" stroke="#E7E0CC" stroke-miterlimit="10" stroke-linecap="round" stroke-linejoin="round"/>
<path d="M1062.54 8.35449H11.5607V651.646H1062.54V8.35449Z" stroke="#E7E0CC" stroke-miterlimit="10" stroke-linecap="round" stroke-linejoin="round"/>
<path d="M660.016 8.35449V651.646" stroke="#E7E0CC" stroke-miterlimit="10" stroke-linecap="round" stroke-linejoin="round"/>
<path d="M1062.54 405.816H660.016" stroke="#E7E0CC" stroke-miterlimit="10" stroke-linecap="round" stroke-linejoin="round"/>
<path d="M813.459 405.816V651.437" stroke="#E7E0CC" stroke-miterlimit="10" stroke-linecap="round" stroke-linejoin="round"/>
<path d="M660.016 499.595L813.459 501.475" stroke="#E7E0CC" stroke-miterlimit="10" stroke-linecap="round" stroke-linejoin="round"/>
<path d="M755.024 405.816L754.604 500.013" stroke="#E7E0CC" stroke-miterlimit="10" stroke-linecap="round" stroke-linejoin="round"/>
<path d="M813.039 465.133H755.024" stroke="#E7E0CC" stroke-miterlimit="10" stroke-linecap="round" stroke-linejoin="round"/>
<path d="M777.726 500.013V465.133" stroke="#E7E0CC" stroke-miterlimit="10" stroke-linecap="round" stroke-linejoin="round"/>
<path d="M777.725 482.469H755.024" stroke="#E7E0CC" stroke-miterlimit="10" stroke-linecap="round" stroke-linejoin="round"/>
</svg>
