<svg width="976" height="540" viewBox="0 0 976 540" fill="none" xmlns="http://www.w3.org/2000/svg">
<path d="M965.474 531.798C965.474 531.798 971.79 319.215 798.98 165.247C626.171 11.2785 376.621 -27.3418 216.634 36.7405C56.646 100.823 -23.3477 279.228 21.4335 397.652C66.2147 516.076 210.318 553.158 291.843 523.253C373.368 493.348 400.734 403.462 347.915 356.297C299.115 312.722 247.062 337.671 239.024 361.937C230.986 386.203 239.024 399.019 248.593 404.658C258.161 410.298 281.317 415.424 287.824 395.43" stroke="#E7E0CC" stroke-miterlimit="10" stroke-linecap="round" stroke-linejoin="round"/>
<path d="M8.61151 6.83545H965.475V533.165H8.61151V6.83545Z" stroke="#E7E0CC" stroke-miterlimit="10" stroke-linecap="round" stroke-linejoin="round"/>
<path d="M375.09 6.83545V533.165" stroke="#E7E0CC" stroke-miterlimit="10" stroke-linecap="round" stroke-linejoin="round"/>
<path d="M8.61193 332.032H375.09" stroke="#E7E0CC" stroke-miterlimit="10" stroke-linecap="round" stroke-linejoin="round"/>
<path d="M235.388 332.032V532.994" stroke="#E7E0CC" stroke-miterlimit="10" stroke-linecap="round" stroke-linejoin="round"/>
<path d="M375.09 408.76L235.388 410.298" stroke="#E7E0CC" stroke-miterlimit="10" stroke-linecap="round" stroke-linejoin="round"/>
<path d="M288.59 332.032L288.973 409.101" stroke="#E7E0CC" stroke-miterlimit="10" stroke-linecap="round" stroke-linejoin="round"/>
<path d="M235.771 380.563H288.59" stroke="#E7E0CC" stroke-miterlimit="10" stroke-linecap="round" stroke-linejoin="round"/>
<path d="M267.922 409.101V380.563" stroke="#E7E0CC" stroke-miterlimit="10" stroke-linecap="round" stroke-linejoin="round"/>
<path d="M267.922 394.747H288.59" stroke="#E7E0CC" stroke-miterlimit="10" stroke-linecap="round" stroke-linejoin="round"/>
</svg>
