<svg width="1152" height="660" viewBox="0 0 1152 660" fill="none" xmlns="http://www.w3.org/2000/svg">
<path d="M12.4236 649.975C12.4236 649.975 4.9695 390.152 208.941 201.968C412.913 13.7849 707.464 -33.4176 896.301 44.9052C1085.14 123.228 1179.56 341.279 1126.7 486.019C1073.84 630.76 903.755 676.082 807.53 639.532C711.304 602.981 679.003 493.12 741.346 435.475C798.946 382.215 860.386 412.709 869.873 442.367C879.36 472.025 869.873 487.69 858.579 494.582C847.285 501.475 819.953 507.741 812.273 483.304" stroke="#E7E0CC" stroke-miterlimit="10" stroke-linecap="round" stroke-linejoin="round"/>
<path d="M1141.84 8.35449H12.4235V651.646H1141.84V8.35449Z" stroke="#E7E0CC" stroke-miterlimit="10" stroke-linecap="round" stroke-linejoin="round"/>
<path d="M709.27 8.35449V651.646" stroke="#E7E0CC" stroke-miterlimit="10" stroke-linecap="round" stroke-linejoin="round"/>
<path d="M1141.84 405.816H709.27" stroke="#E7E0CC" stroke-miterlimit="10" stroke-linecap="round" stroke-linejoin="round"/>
<path d="M874.164 405.816V651.437" stroke="#E7E0CC" stroke-miterlimit="10" stroke-linecap="round" stroke-linejoin="round"/>
<path d="M709.27 499.595L874.164 501.475" stroke="#E7E0CC" stroke-miterlimit="10" stroke-linecap="round" stroke-linejoin="round"/>
<path d="M811.369 405.816L810.917 500.013" stroke="#E7E0CC" stroke-miterlimit="10" stroke-linecap="round" stroke-linejoin="round"/>
<path d="M873.713 465.133H811.369" stroke="#E7E0CC" stroke-miterlimit="10" stroke-linecap="round" stroke-linejoin="round"/>
<path d="M835.765 500.013V465.133" stroke="#E7E0CC" stroke-miterlimit="10" stroke-linecap="round" stroke-linejoin="round"/>
<path d="M835.765 482.469H811.369" stroke="#E7E0CC" stroke-miterlimit="10" stroke-linecap="round" stroke-linejoin="round"/>
</svg>
