<svg width="980" height="607" viewBox="0 0 980 607" fill="none" xmlns="http://www.w3.org/2000/svg">
<path d="M10.5687 597.78C10.5687 597.78 4.22755 358.821 177.745 185.75C351.263 12.6778 601.835 -30.7342 762.478 41.299C923.122 113.332 1003.44 313.873 958.478 446.99C913.514 580.108 768.82 621.791 686.961 588.175C605.102 554.56 577.624 453.521 630.659 400.505C679.659 351.522 731.926 379.567 739.996 406.844C748.067 434.12 739.996 448.527 730.388 454.866C720.78 461.205 697.53 466.967 690.996 444.493" stroke="#CBC4B8" stroke-miterlimit="10" stroke-linecap="round" stroke-linejoin="round"/>
<path d="M971.353 7.68359H10.5686V599.317H971.353V7.68359Z" stroke="#CBC4B8" stroke-miterlimit="10" stroke-linecap="round" stroke-linejoin="round"/>
<path d="M603.373 7.68359V599.317" stroke="#CBC4B8" stroke-miterlimit="10" stroke-linecap="round" stroke-linejoin="round"/>
<path d="M971.353 373.228H603.373" stroke="#CBC4B8" stroke-miterlimit="10" stroke-linecap="round" stroke-linejoin="round"/>
<path d="M743.647 373.228V599.125" stroke="#CBC4B8" stroke-miterlimit="10" stroke-linecap="round" stroke-linejoin="round"/>
<path d="M603.373 459.476L743.647 461.205" stroke="#CBC4B8" stroke-miterlimit="10" stroke-linecap="round" stroke-linejoin="round"/>
<path d="M690.227 373.228L689.843 459.86" stroke="#CBC4B8" stroke-miterlimit="10" stroke-linecap="round" stroke-linejoin="round"/>
<path d="M743.263 427.781H690.228" stroke="#CBC4B8" stroke-miterlimit="10" stroke-linecap="round" stroke-linejoin="round"/>
<path d="M710.98 459.86V427.781" stroke="#CBC4B8" stroke-miterlimit="10" stroke-linecap="round" stroke-linejoin="round"/>
<path d="M710.98 443.725H690.228" stroke="#CBC4B8" stroke-miterlimit="10" stroke-linecap="round" stroke-linejoin="round"/>
</svg>
